<svg width="451" height="412" viewBox="0 0 451 412" fill="none" xmlns="http://www.w3.org/2000/svg">
<g filter="url(#filter0_f_415_41)">
<circle cx="244.5" cy="205.8" r="191.5" fill="#71FFBD" fill-opacity="0.24"/>
</g>
<g filter="url(#filter1_f_415_41)">
<circle cx="244.5" cy="205.8" r="138.5" fill="#65FFC2" fill-opacity="0.24"/>
</g>
<g filter="url(#filter2_d_415_41)">
<circle cx="244.5" cy="205.8" r="93.5" fill="url(#paint0_linear_415_41)"/>
</g>
<g clip-path="url(#clip0_415_41)">
<path d="M236.882 195.315L230.766 216.285H235.018L236.058 212.313H242.541L243.581 216.285H247.833L241.717 195.315H236.884H236.882ZM237.001 208.71L239.165 200.439H239.433L241.597 208.71H236.999H237.001Z" fill="#155B47"/>
<path d="M255.47 195.315H250.085V216.285H255.47C262.104 216.285 265.42 212.888 265.42 206.095C265.421 198.909 262.104 195.315 255.47 195.315ZM259.833 210.917C258.863 212.015 257.409 212.563 255.47 212.563H254.023V199.037H255.47C257.409 199.037 258.863 199.633 259.833 200.824C260.804 202.015 261.288 203.773 261.288 206.097C261.288 208.214 260.804 209.821 259.833 210.918V210.917Z" fill="#155B47"/>
<path d="M268.285 195.315V198.903V203.984V207.587V212.697V216.285H272.223H282.815V212.697H272.223V207.587H280.13V203.984H272.223V198.903H282.815V195.315H272.223H268.285Z" fill="#155B47"/>
<path d="M296.211 195.315V211.708H295.66L291.93 195.315H289.796H288.722H286.008V216.285H289.796V199.894H290.349L294.078 216.285H296.211H296.659H300.001V195.315H296.211Z" fill="#155B47"/>
<path d="M214.614 195.324L205.84 195.328L209.494 199.327H214.758C221.526 198.649 225.044 206.817 220.243 211.054C219.919 211.342 219.214 211.829 218.778 211.829C218.3 211.828 217.641 211.407 216.949 210.824C215.749 209.814 214.458 208.314 213.866 207.676C212.905 206.639 211.929 205.445 210.918 204.219L205.043 197.784C203.615 196.22 201.586 195.328 199.456 195.33H198.342C198.185 195.33 198.028 195.334 197.87 195.343C196.7 195.408 195.464 195.712 194.157 196.311C183.811 201.067 187.033 217.319 199.859 216.251C202.102 216.063 203.78 215.019 205.262 213.657L207.711 216.288H213.441L205.725 207.841C204.483 208.993 203.105 210.233 202.545 210.719C200.843 212.207 198.933 213.032 196.077 211.991C189.198 209.481 191.42 198.784 199.001 199.377C201.165 199.546 202.659 201.214 204.05 202.669C205.076 203.741 206.201 204.991 207.355 206.291L216.482 216.288H218.546C218.584 216.29 218.622 216.29 218.658 216.29C220.182 216.29 221.646 215.278 223.545 213.251C230.119 206.23 224.388 194.704 214.614 195.324Z" fill="#155B47"/>
<path d="M198.342 195.331C198.185 195.331 198.027 195.336 197.87 195.345L197.847 195.331H198.342Z" fill="#155B47"/>
</g>
<g filter="url(#filter3_d_415_41)">
<rect x="195" y="0.299988" width="119" height="55" rx="27.5" fill="url(#paint1_linear_415_41)"/>
</g>
<g filter="url(#filter4_d_415_41)">
<rect y="178.3" width="106" height="55" rx="27.5" fill="url(#paint2_linear_415_41)"/>
</g>
<g filter="url(#filter5_d_415_41)">
<rect x="289" y="320.3" width="119" height="55" rx="27.5" fill="url(#paint3_linear_415_41)"/>
</g>
<path d="M229.042 19.56H236.962V21.66H229.042V19.56ZM231.322 23.7H233.942V28.26H231.322V23.7ZM235.902 19.56H238.542V20.76C238.542 21.3733 238.522 22.0867 238.482 22.9C238.442 23.7133 238.316 24.6267 238.102 25.64L235.522 25.42C235.722 24.4333 235.836 23.5667 235.862 22.82C235.889 22.06 235.902 21.3733 235.902 20.76V19.56ZM240.322 18.54H243.002V29.84H240.322V18.54ZM241.962 23.1H245.222V25.28H241.962V23.1ZM228.202 29.08L227.942 26.96C229.062 26.96 230.262 26.9533 231.542 26.94C232.836 26.9267 234.149 26.8867 235.482 26.82C236.816 26.74 238.096 26.6267 239.322 26.48L239.502 28.36C238.236 28.5733 236.942 28.7333 235.622 28.84C234.302 28.9333 233.009 29 231.742 29.04C230.489 29.0667 229.309 29.08 228.202 29.08ZM236.762 30.04C238.082 30.04 239.216 30.18 240.162 30.46C241.122 30.74 241.862 31.14 242.382 31.66C242.902 32.18 243.162 32.8067 243.162 33.54C243.162 34.2733 242.902 34.9 242.382 35.42C241.862 35.9533 241.122 36.36 240.162 36.64C239.216 36.92 238.082 37.06 236.762 37.06C235.456 37.06 234.316 36.92 233.342 36.64C232.382 36.36 231.642 35.9533 231.122 35.42C230.602 34.9 230.342 34.2733 230.342 33.54C230.342 32.8067 230.602 32.18 231.122 31.66C231.642 31.14 232.382 30.74 233.342 30.46C234.316 30.18 235.456 30.04 236.762 30.04ZM236.762 32.08C235.562 32.08 234.642 32.2 234.002 32.44C233.376 32.68 233.062 33.0467 233.062 33.54C233.062 34.02 233.376 34.38 234.002 34.62C234.642 34.86 235.562 34.98 236.762 34.98C237.949 34.98 238.856 34.86 239.482 34.62C240.122 34.38 240.442 34.02 240.442 33.54C240.442 33.0467 240.122 32.68 239.482 32.44C238.856 32.2 237.949 32.08 236.762 32.08ZM248.341 20.12H260.061V22.24H248.341V20.12ZM246.621 32.68H263.381V34.84H246.621V32.68ZM252.541 26.32H255.221V33.76H252.541V26.32ZM259.101 20.12H261.781V21.88C261.781 22.6533 261.767 23.4733 261.741 24.34C261.727 25.2067 261.667 26.1667 261.561 27.22C261.467 28.2733 261.294 29.4533 261.041 30.76L258.381 30.48C258.754 28.6267 258.967 27.0133 259.021 25.64C259.074 24.2533 259.101 23 259.101 21.88V20.12ZM271.859 20.6H274.179V21.16C274.179 21.8 274.073 22.42 273.859 23.02C273.659 23.62 273.353 24.18 272.939 24.7C272.526 25.2067 272.019 25.6667 271.419 26.08C270.833 26.48 270.153 26.82 269.379 27.1C268.606 27.38 267.746 27.58 266.799 27.7L265.819 25.64C266.646 25.5333 267.379 25.3733 268.019 25.16C268.673 24.9333 269.239 24.6733 269.719 24.38C270.199 24.0733 270.599 23.7467 270.919 23.4C271.239 23.0533 271.473 22.6867 271.619 22.3C271.779 21.9133 271.859 21.5333 271.859 21.16V20.6ZM272.639 20.6H274.939V21.16C274.939 21.5333 275.013 21.9133 275.159 22.3C275.319 22.6867 275.559 23.0533 275.879 23.4C276.199 23.7467 276.599 24.0733 277.079 24.38C277.573 24.6733 278.139 24.9333 278.779 25.16C279.419 25.3733 280.153 25.5333 280.979 25.64L279.999 27.7C279.053 27.58 278.193 27.38 277.419 27.1C276.646 26.82 275.959 26.48 275.359 26.08C274.773 25.6667 274.273 25.2067 273.859 24.7C273.459 24.18 273.153 23.62 272.939 23.02C272.739 22.42 272.639 21.8 272.639 21.16V20.6ZM271.999 30.3H274.659V37.08H271.999V30.3ZM265.019 28.76H281.779V30.9H265.019V28.76ZM266.499 19.5H280.239V21.6H266.499V19.5Z" fill="white"/>
<path d="M49.2816 196.54H51.8216V215.06H49.2816V196.54ZM47.0616 203.62H50.1416V205.74H47.0616V203.62ZM45.2416 196.84H47.7216V214.24H45.2416V196.84ZM36.4416 198.44H43.7416V210.44H36.4416V198.44ZM41.2816 200.52H38.9216V208.38H41.2816V200.52ZM61.86 203.56H64.78V205.72H61.86V203.56ZM57.54 201.7H59.56V202.18C59.56 203.14 59.48 204.093 59.32 205.04C59.1733 205.973 58.9333 206.86 58.6 207.7C58.28 208.527 57.86 209.28 57.34 209.96C56.8333 210.627 56.2067 211.173 55.46 211.6L53.98 209.6C54.6333 209.213 55.1867 208.747 55.64 208.2C56.0933 207.64 56.46 207.033 56.74 206.38C57.0333 205.713 57.24 205.027 57.36 204.32C57.48 203.6 57.54 202.887 57.54 202.18V201.7ZM58.06 201.7H60.08V202.18C60.08 202.86 60.14 203.547 60.26 204.24C60.3933 204.933 60.6 205.587 60.88 206.2C61.16 206.813 61.5267 207.38 61.98 207.9C62.4333 208.407 62.9867 208.833 63.64 209.18L62.2 211.16C61.2133 210.64 60.4133 209.92 59.8 209C59.1867 208.067 58.74 207.013 58.46 205.84C58.1933 204.653 58.06 203.433 58.06 202.18V201.7ZM54.66 199.66H62.92V201.8H54.66V199.66ZM57.54 197.16H60.08V201.38H57.54V197.16ZM67.68 196.54H70.22V215.06H67.68V196.54ZM63.94 196.84H66.42V214.22H63.94V196.84Z" fill="white"/>
<path d="M326.382 339.98H328.522V342.66C328.522 343.807 328.422 344.927 328.222 346.02C328.022 347.1 327.709 348.107 327.282 349.04C326.869 349.973 326.342 350.807 325.702 351.54C325.062 352.26 324.309 352.833 323.442 353.26L321.842 351.12C322.629 350.76 323.302 350.28 323.862 349.68C324.436 349.08 324.909 348.4 325.282 347.64C325.656 346.88 325.929 346.08 326.102 345.24C326.289 344.387 326.382 343.527 326.382 342.66V339.98ZM326.902 339.98H329.042V342.66C329.042 343.5 329.122 344.327 329.282 345.14C329.456 345.953 329.716 346.727 330.062 347.46C330.422 348.18 330.869 348.827 331.402 349.4C331.936 349.973 332.576 350.447 333.322 350.82L331.702 352.94C330.876 352.513 330.156 351.953 329.542 351.26C328.942 350.553 328.449 349.747 328.062 348.84C327.676 347.92 327.382 346.94 327.182 345.9C326.996 344.847 326.902 343.767 326.902 342.66V339.98ZM334.042 338.56H336.722V357.08H334.042V338.56ZM336.142 345.68H339.402V347.88H336.142V345.68ZM344.381 344.74H347.021V348.14H344.381V344.74ZM350.881 344.74H353.541V348.14H350.881V344.74ZM340.601 347.34H357.361V349.42H340.601V347.34ZM348.941 350.36C350.941 350.36 352.514 350.653 353.661 351.24C354.807 351.813 355.381 352.64 355.381 353.72C355.381 354.787 354.807 355.613 353.661 356.2C352.514 356.787 350.941 357.08 348.941 357.08C346.941 357.08 345.367 356.787 344.221 356.2C343.087 355.613 342.521 354.787 342.521 353.72C342.521 352.64 343.087 351.813 344.221 351.24C345.367 350.653 346.941 350.36 348.941 350.36ZM348.941 352.36C348.114 352.36 347.421 352.413 346.861 352.52C346.314 352.613 345.901 352.76 345.621 352.96C345.341 353.16 345.201 353.413 345.201 353.72C345.201 354.027 345.341 354.287 345.621 354.5C345.901 354.7 346.314 354.847 346.861 354.94C347.421 355.033 348.114 355.08 348.941 355.08C349.767 355.08 350.454 355.033 351.001 354.94C351.561 354.847 351.981 354.7 352.261 354.5C352.541 354.287 352.681 354.027 352.681 353.72C352.681 353.413 352.541 353.16 352.261 352.96C351.981 352.76 351.561 352.613 351.001 352.52C350.454 352.413 349.767 352.36 348.941 352.36ZM348.981 338.82C350.354 338.82 351.541 338.967 352.541 339.26C353.554 339.54 354.334 339.947 354.881 340.48C355.427 341.013 355.701 341.647 355.701 342.38C355.701 343.113 355.427 343.747 354.881 344.28C354.334 344.8 353.554 345.207 352.541 345.5C351.541 345.78 350.354 345.92 348.981 345.92C347.634 345.92 346.454 345.78 345.441 345.5C344.427 345.207 343.647 344.8 343.101 344.28C342.554 343.747 342.281 343.113 342.281 342.38C342.281 341.647 342.554 341.013 343.101 340.48C343.647 339.947 344.427 339.54 345.441 339.26C346.454 338.967 347.634 338.82 348.981 338.82ZM348.981 340.84C348.154 340.84 347.441 340.9 346.841 341.02C346.241 341.127 345.787 341.293 345.481 341.52C345.187 341.747 345.041 342.033 345.041 342.38C345.041 342.713 345.187 342.993 345.481 343.22C345.787 343.447 346.241 343.62 346.841 343.74C347.441 343.847 348.154 343.9 348.981 343.9C349.834 343.9 350.554 343.847 351.141 343.74C351.727 343.62 352.174 343.447 352.481 343.22C352.787 342.993 352.941 342.713 352.941 342.38C352.941 342.033 352.787 341.747 352.481 341.52C352.174 341.293 351.727 341.127 351.141 341.02C350.554 340.9 349.834 340.84 348.981 340.84ZM363.159 341.48H365.259V343.56C365.259 344.587 365.146 345.613 364.919 346.64C364.706 347.667 364.386 348.633 363.959 349.54C363.533 350.433 362.993 351.233 362.339 351.94C361.699 352.647 360.953 353.2 360.099 353.6L358.599 351.5C359.373 351.14 360.039 350.667 360.599 350.08C361.173 349.493 361.646 348.84 362.019 348.12C362.406 347.4 362.693 346.653 362.879 345.88C363.066 345.093 363.159 344.32 363.159 343.56V341.48ZM363.719 341.48H365.819V343.56C365.819 344.253 365.913 344.967 366.099 345.7C366.286 346.433 366.559 347.14 366.919 347.82C367.293 348.5 367.759 349.12 368.319 349.68C368.893 350.227 369.559 350.673 370.319 351.02L368.839 353.14C367.986 352.74 367.239 352.207 366.599 351.54C365.973 350.86 365.439 350.093 364.999 349.24C364.573 348.373 364.253 347.46 364.039 346.5C363.826 345.527 363.719 344.547 363.719 343.56V341.48ZM359.319 340.32H369.499V342.52H359.319V340.32ZM370.839 338.56H373.519V357.08H370.839V338.56ZM372.939 345.62H376.199V347.8H372.939V345.62Z" fill="white"/>
<defs>
<filter id="filter0_f_415_41" x="38.7" y="-1.23978e-05" width="411.6" height="411.6" filterUnits="userSpaceOnUse" color-interpolation-filters="sRGB">
<feFlood flood-opacity="0" result="BackgroundImageFix"/>
<feBlend mode="normal" in="SourceGraphic" in2="BackgroundImageFix" result="shape"/>
<feGaussianBlur stdDeviation="7.15" result="effect1_foregroundBlur_415_41"/>
</filter>
<filter id="filter1_f_415_41" x="98.4" y="59.7" width="292.2" height="292.2" filterUnits="userSpaceOnUse" color-interpolation-filters="sRGB">
<feFlood flood-opacity="0" result="BackgroundImageFix"/>
<feBlend mode="normal" in="SourceGraphic" in2="BackgroundImageFix" result="shape"/>
<feGaussianBlur stdDeviation="3.8" result="effect1_foregroundBlur_415_41"/>
</filter>
<filter id="filter2_d_415_41" x="147" y="112.3" width="195" height="195" filterUnits="userSpaceOnUse" color-interpolation-filters="sRGB">
<feFlood flood-opacity="0" result="BackgroundImageFix"/>
<feColorMatrix in="SourceAlpha" type="matrix" values="0 0 0 0 0 0 0 0 0 0 0 0 0 0 0 0 0 0 127 0" result="hardAlpha"/>
<feOffset dy="4"/>
<feGaussianBlur stdDeviation="2"/>
<feComposite in2="hardAlpha" operator="out"/>
<feColorMatrix type="matrix" values="0 0 0 0 0 0 0 0 0 0 0 0 0 0 0 0 0 0 0.25 0"/>
<feBlend mode="normal" in2="BackgroundImageFix" result="effect1_dropShadow_415_41"/>
<feBlend mode="normal" in="SourceGraphic" in2="effect1_dropShadow_415_41" result="shape"/>
</filter>
<filter id="filter3_d_415_41" x="195" y="0.299988" width="127" height="63" filterUnits="userSpaceOnUse" color-interpolation-filters="sRGB">
<feFlood flood-opacity="0" result="BackgroundImageFix"/>
<feColorMatrix in="SourceAlpha" type="matrix" values="0 0 0 0 0 0 0 0 0 0 0 0 0 0 0 0 0 0 127 0" result="hardAlpha"/>
<feOffset dx="4" dy="4"/>
<feGaussianBlur stdDeviation="2"/>
<feComposite in2="hardAlpha" operator="out"/>
<feColorMatrix type="matrix" values="0 0 0 0 0 0 0 0 0 0 0 0 0 0 0 0 0 0 0.25 0"/>
<feBlend mode="normal" in2="BackgroundImageFix" result="effect1_dropShadow_415_41"/>
<feBlend mode="normal" in="SourceGraphic" in2="effect1_dropShadow_415_41" result="shape"/>
</filter>
<filter id="filter4_d_415_41" x="0" y="178.3" width="114" height="63" filterUnits="userSpaceOnUse" color-interpolation-filters="sRGB">
<feFlood flood-opacity="0" result="BackgroundImageFix"/>
<feColorMatrix in="SourceAlpha" type="matrix" values="0 0 0 0 0 0 0 0 0 0 0 0 0 0 0 0 0 0 127 0" result="hardAlpha"/>
<feOffset dx="4" dy="4"/>
<feGaussianBlur stdDeviation="2"/>
<feComposite in2="hardAlpha" operator="out"/>
<feColorMatrix type="matrix" values="0 0 0 0 0 0 0 0 0 0 0 0 0 0 0 0 0 0 0.25 0"/>
<feBlend mode="normal" in2="BackgroundImageFix" result="effect1_dropShadow_415_41"/>
<feBlend mode="normal" in="SourceGraphic" in2="effect1_dropShadow_415_41" result="shape"/>
</filter>
<filter id="filter5_d_415_41" x="289" y="320.3" width="127" height="63" filterUnits="userSpaceOnUse" color-interpolation-filters="sRGB">
<feFlood flood-opacity="0" result="BackgroundImageFix"/>
<feColorMatrix in="SourceAlpha" type="matrix" values="0 0 0 0 0 0 0 0 0 0 0 0 0 0 0 0 0 0 127 0" result="hardAlpha"/>
<feOffset dx="4" dy="4"/>
<feGaussianBlur stdDeviation="2"/>
<feComposite in2="hardAlpha" operator="out"/>
<feColorMatrix type="matrix" values="0 0 0 0 0 0 0 0 0 0 0 0 0 0 0 0 0 0 0.25 0"/>
<feBlend mode="normal" in2="BackgroundImageFix" result="effect1_dropShadow_415_41"/>
<feBlend mode="normal" in="SourceGraphic" in2="effect1_dropShadow_415_41" result="shape"/>
</filter>
<linearGradient id="paint0_linear_415_41" x1="173.5" y1="85.3" x2="303.271" y2="289.208" gradientUnits="userSpaceOnUse">
<stop stop-color="#6EE7B7"/>
<stop offset="1" stop-color="#169B68"/>
</linearGradient>
<linearGradient id="paint1_linear_415_41" x1="254.5" y1="0.299988" x2="254.5" y2="55.3" gradientUnits="userSpaceOnUse">
<stop stop-color="#20C173"/>
<stop offset="1" stop-color="#0F5B36"/>
</linearGradient>
<linearGradient id="paint2_linear_415_41" x1="53" y1="178.3" x2="53" y2="233.3" gradientUnits="userSpaceOnUse">
<stop stop-color="#20C173"/>
<stop offset="1" stop-color="#0F5B36"/>
</linearGradient>
<linearGradient id="paint3_linear_415_41" x1="348.5" y1="320.3" x2="348.5" y2="375.3" gradientUnits="userSpaceOnUse">
<stop stop-color="#20C173"/>
<stop offset="1" stop-color="#0F5B36"/>
</linearGradient>
<clipPath id="clip0_415_41">
<rect width="112" height="21" fill="white" transform="translate(188 195.3)"/>
</clipPath>
</defs>
</svg>
