<svg width="112" height="21" viewBox="0 0 112 21" fill="none" xmlns="http://www.w3.org/2000/svg">
<g clip-path="url(#clip0_298_530)">
<path d="M48.8825 0.0150146L42.7664 20.985H47.0178L48.0576 17.0131H54.5415L55.5813 20.985H59.8327L53.7166 0.0150146H48.884H48.8825ZM49.0005 13.4097L51.1648 5.13916H51.4327L53.5971 13.4097H48.999H49.0005Z" fill="#155B47"/>
<path d="M67.4699 0.0150146H62.0848V20.985H67.4699C74.1036 20.985 77.4198 17.5884 77.4198 10.7952C77.4213 3.60941 74.1036 0.0150146 67.4699 0.0150146ZM71.8334 15.6167C70.8632 16.7149 69.4087 17.2633 67.4699 17.2633H66.023V3.73676H67.4699C69.4087 3.73676 70.8632 4.33308 71.8334 5.52422C72.8035 6.71536 73.2879 8.47285 73.2879 10.7967C73.2879 12.9138 72.8035 14.5214 71.8334 15.6182V15.6167Z" fill="#155B47"/>
<path d="M80.2849 0.0150146V3.60341V8.68411V12.2875V17.3967V20.985H84.223H94.8146V17.3967H84.223V12.2875H92.1296V8.68411H84.223V3.60341H94.8146V0.0150146H84.223H80.2849Z" fill="#155B47"/>
<path d="M108.211 0.0150146V16.4078H107.66L103.93 0.0150146H101.796H100.722H98.0081V20.985H101.796V4.59378H102.349L106.078 20.985H108.211H108.659H112.001V0.0150146H108.211Z" fill="#155B47"/>
<path d="M26.6141 0.024042L17.8403 0.0285369L21.4939 4.02747H26.7579C33.5263 3.34874 37.0437 11.5174 32.2429 15.7546C31.919 16.0422 31.2137 16.5292 30.7778 16.5292C30.2995 16.5277 29.6412 16.1067 28.9495 15.5238C27.7493 14.514 26.4582 13.0142 25.8664 12.3759C24.9054 11.3391 23.9292 10.145 22.9181 8.91938L17.0427 2.48423C15.6154 0.920018 13.5858 0.0285369 11.4563 0.0300352H10.3423C10.1849 0.0300352 10.0275 0.03453 9.87013 0.0435198C8.70018 0.107946 7.46364 0.412099 6.15748 1.01141C-4.1889 5.76698 -0.966626 22.0189 11.8589 20.9506C14.1019 20.7633 15.7804 19.719 17.2621 18.3571L19.711 20.9881H25.4412L17.7253 12.5407C16.4827 13.6929 15.1054 14.9335 14.5454 15.4189C12.8427 16.9067 10.9326 17.7323 8.07662 16.691C1.1977 14.1814 3.41954 3.48359 11.0007 4.07691C13.165 4.24622 14.6589 5.91381 16.0498 7.36865C17.076 8.44142 18.2005 9.69099 19.3553 10.9915L28.4818 20.9881H30.5462C30.5841 20.9896 30.6219 20.9896 30.6582 20.9896C32.1823 20.9896 33.6459 19.9782 35.5454 17.9511C42.1186 10.9301 36.3884 -0.596249 26.6141 0.024042Z" fill="#155B47"/>
<path d="M10.3422 0.0314941C10.1848 0.0314941 10.0275 0.035989 9.87011 0.0449787L9.84741 0.0314941H10.3422Z" fill="#155B47"/>
</g>
<defs>
<clipPath id="clip0_298_530">
<rect width="112" height="21" fill="white"/>
</clipPath>
</defs>
</svg>
