<svg width="219" height="36" viewBox="0 0 219 36" fill="none" xmlns="http://www.w3.org/2000/svg">
<path d="M29.0221 23.3808C33.344 19.338 30.1546 11.7423 24.0651 12.3871C22.9002 12.5101 22.346 13.1804 21.4824 13.874L18.9382 10.9341C20.0445 9.54481 22.2125 8.68364 23.9357 8.5691C32.7332 7.97731 37.9107 18.778 31.9951 25.4723C28.5812 29.3369 25.2745 27.9858 22.2429 24.6535C19.5389 21.6818 17.1403 18.3602 14.4464 15.38C13.1925 13.9928 11.8496 12.402 9.89997 12.2408C3.07628 11.6744 1.07609 21.877 7.2708 24.2696C11.2813 25.818 13.2168 23.033 15.6154 20.2925L18.016 23.086C15.9531 25.5168 14.0055 28.0388 10.6746 28.3315C-0.869493 29.3518 -3.76966 13.8549 5.54162 9.31997C13.6577 5.36834 18.6692 14.8837 23.2804 20.1589C24.1177 21.1155 26.5264 24.1169 27.7014 24.119C28.0918 24.119 28.7288 23.6545 29.0201 23.3808H29.0221Z" fill="#838383"/>
<path d="M42.4451 25.9789L43.8062 25.7732L49.6085 8.38428H53.524L59.2859 25.7732L60.647 25.9789V28.3822H54.1509V25.9789L55.4736 25.7308L54.6363 22.9839H48.4557L47.6185 25.7308L48.9411 25.9789V28.3822H42.4451V25.9789ZM49.3598 20.0313H53.7343L51.5865 12.985H51.5076L49.3598 20.0313Z" fill="#838383"/>
<path d="M70.4841 8.38428C72.814 8.38428 74.7353 9.16485 76.246 10.726C77.7568 12.2871 78.5112 14.2895 78.5112 16.7351V20.0462C78.5112 22.5003 77.7568 24.5026 76.246 26.0553C74.7353 27.6079 72.816 28.3843 70.4841 28.3843H61.907V25.9811L63.9375 25.5696V11.2138L61.907 10.8023V8.38428H70.4841ZM67.7599 11.4747V25.3065H70.2879C71.6592 25.3065 72.7331 24.8208 73.5097 23.8515C74.2863 22.88 74.6746 21.6137 74.6746 20.0462V16.7097C74.6746 15.1634 74.2863 13.9034 73.5097 12.9319C72.7331 11.9605 71.6592 11.4769 70.2879 11.4769H67.7599V11.4747Z" fill="#838383"/>
<path d="M92.6944 19.5923H86.2388V25.3065H92.3931L92.5629 22.916H95.4712V28.3822H80.3859V25.9789L82.4164 25.5674V11.2138L80.3859 10.8023V8.38428H95.4449V13.8652H92.5124L92.3425 11.4747H86.2408V16.5018H92.6964V19.5923H92.6944Z" fill="#838383"/>
<path d="M117 8.38428V10.8023L114.957 11.2138V28.3822H111.147L103.448 14.9216L103.369 14.9343V25.5653L105.412 25.9768V28.38H97.5139V25.9768L99.5444 25.5653V11.2138L97.5139 10.8023V8.38428H103.367L111.066 21.8449L111.145 21.8321V11.2138L109.102 10.8023V8.38428H116.998H117Z" fill="#838383"/>
</svg>
