<svg width="191" height="36" viewBox="0 0 191 36" fill="none" xmlns="http://www.w3.org/2000/svg">
<g clip-path="url(#clip0_257_2)">
<path d="M82.9546 0.0256348L72.5753 35.9743H79.7902L81.5548 29.1652H92.5582L94.3228 35.9743H101.538L91.1584 0.0256348H82.9572H82.9546ZM83.155 22.988L86.8279 8.80988H87.2825L90.9555 22.988H83.1524H83.155Z" fill="#169B68"/>
<path d="M114.498 0.0256348H105.36V35.9743H114.498C125.756 35.9743 131.384 30.1515 131.384 18.5059C131.386 6.18745 125.756 0.0256348 114.498 0.0256348ZM121.903 26.7714C120.257 28.6541 117.789 29.5941 114.498 29.5941H112.043V6.40577H114.498C117.789 6.40577 120.257 7.42803 121.903 9.46998C123.55 11.5119 124.372 14.5248 124.372 18.5085C124.372 22.1378 123.55 24.8938 121.903 26.7739V26.7714Z" fill="#169B68"/>
<path d="M136.246 0.0256348V6.17718V14.8869V21.0642V29.8227V35.9743H142.929H160.903V29.8227H142.929V21.0642H156.347V14.8869H142.929V6.17718H160.903V0.0256348H142.929H136.246Z" fill="#169B68"/>
<path d="M183.637 0.0256348V28.1275H182.702L176.373 0.0256348H172.752H170.928H166.323V35.9743H172.752V7.87495H173.689L180.018 35.9743H183.637H184.397H190.069V0.0256348H183.637Z" fill="#169B68"/>
<path d="M45.1644 0.0410929L30.2748 0.0487983L36.4752 6.90411H45.4084C56.8947 5.74058 62.8639 19.744 54.7166 27.0077C54.167 27.5009 52.97 28.3356 52.2303 28.3356C51.4187 28.333 50.3014 27.6113 49.1276 26.6122C47.0908 24.881 44.8998 22.3099 43.8955 21.2158C42.2646 19.4384 40.6079 17.3913 38.8921 15.2902L28.9212 4.25856C26.4992 1.57705 23.0548 0.0487983 19.4409 0.0513668H17.5505C17.2834 0.0513668 17.0163 0.0590723 16.7492 0.0744833C14.7637 0.184928 12.6652 0.706333 10.4486 1.73373C-7.10958 9.88613 -1.64126 37.7466 20.1242 35.9152C23.9307 35.5942 26.7791 33.8039 29.2937 31.4692L33.4495 35.9795H43.1738L30.0796 21.4983C27.9709 23.4735 25.6336 25.6002 24.6832 26.4324C21.7937 28.9829 18.5522 30.3981 13.7055 28.613C2.03169 24.3108 5.80224 5.97174 18.6678 6.98887C22.3408 7.27911 24.8759 10.1378 27.2363 12.6318C28.9777 14.4709 30.8861 16.613 32.8459 18.8425L48.3339 35.9795H51.8373C51.9015 35.982 51.9658 35.982 52.0274 35.982C54.6139 35.982 57.0976 34.2483 60.3211 30.7731C71.476 18.7372 61.7517 -1.02226 45.1644 0.0410929Z" fill="#169B68"/>
<path d="M17.5502 0.0539551C17.2832 0.0539551 17.0162 0.0616606 16.7491 0.0770715L16.7106 0.0539551H17.5502Z" fill="#169B68"/>
</g>
<defs>
<clipPath id="clip0_257_2">
<rect width="190.068" height="36" fill="white"/>
</clipPath>
</defs>
</svg>
