<svg width="66" height="36" viewBox="0 0 66 36" fill="none" xmlns="http://www.w3.org/2000/svg">
<path d="M45.1643 0.0410967L30.2747 0.0488021L36.4751 6.90411H45.4083C56.8946 5.74058 62.8638 19.744 54.7165 27.0077C54.1668 27.5009 52.9699 28.3356 52.2302 28.3356C51.4185 28.333 50.3013 27.6113 49.1274 26.6122C47.0906 24.881 44.8997 22.3099 43.8954 21.2158C42.2644 19.4384 40.6078 17.3913 38.892 15.2902L28.9211 4.25856C26.499 1.57706 23.0547 0.0488021 19.4408 0.0513706H17.5504C17.2833 0.0513706 17.0162 0.0590761 16.749 0.0744871C14.7636 0.184932 12.6651 0.706336 10.4485 1.73373C-7.1097 9.88613 -1.64138 37.7466 20.124 35.9152C23.9305 35.5942 26.779 33.8039 29.2936 31.4692L33.4494 35.9795H43.1737L30.0795 21.4983C27.9708 23.4735 25.6334 25.6002 24.6831 26.4324C21.7935 28.9829 18.5521 30.3981 13.7054 28.613C2.03156 24.3108 5.80211 5.97175 18.6677 6.98887C22.3406 7.27911 24.8757 10.1378 27.2362 12.6319C28.9776 14.4709 30.886 16.613 32.8458 18.8425L48.3338 35.9795H51.8372C51.9014 35.982 51.9656 35.982 52.0273 35.982C54.6138 35.982 57.0975 34.2483 60.3209 30.7731C71.4759 18.7372 61.7516 -1.02226 45.1643 0.0410967Z" fill="#169B68"/>
<path d="M17.55 0.0539398C17.283 0.0539398 17.016 0.0616453 16.749 0.0770563L16.7104 0.0539398H17.55Z" fill="#169B68"/>
</svg>
